<?xml version="1.0" standalone="no"?><!DOCTYPE svg PUBLIC "-//W3C//DTD SVG 1.1//EN" "http://www.w3.org/Graphics/SVG/1.1/DTD/svg11.dtd"><svg t="1669081956973" class="icon" viewBox="0 0 1024 1024" version="1.1" xmlns="http://www.w3.org/2000/svg" p-id="2495" xmlns:xlink="http://www.w3.org/1999/xlink" width="48" height="48"><path d="M895.7 796.2v-192c0-17.7-14.3-32-32-32s-32 14.3-32 32v192c0 17.7-14.3 32-32 32h-576c-17.7 0-32-14.3-32-32v-192c0-17.7-14.3-32-32-32s-32 14.3-32 32v192c0 52.9 43.1 96 96 96h576c52.9 0 96-43.1 96-96z" p-id="2496"></path><path d="M340.7 426.6c-11.6-11.7-30.7-11.7-42.4 0-11.7 11.6-11.7 30.7 0 42.4l191.5 191c6.2 6.2 14.4 9.1 22.6 8.7 8.1 0.4 16.4-2.5 22.6-8.7l190.9-191.6c11.7-11.6 11.7-30.7 0-42.4-11.6-11.7-30.7-11.7-42.4 0L539.2 571V158.3c0-16.5-13.5-30-30-30s-30 13.5-30 30v406.3l-138.5-138z" p-id="2497"></path></svg>